name Walk9.mot
datacolumns 19
datarows 30
range 1.76000000 1.90500000
endheader

                time	   L_ground_force_vx	   L_ground_force_vy	   L_ground_force_vz	   L_ground_force_px	   L_ground_force_py	   L_ground_force_pz	   R_ground_force_vx	   R_ground_force_vy	   R_ground_force_vz	   R_ground_force_px	   R_ground_force_py	   R_ground_force_pz	   L_ground_torque_x	   L_ground_torque_y	   L_ground_torque_z	   R_ground_torque_x	   R_ground_torque_y	   R_ground_torque_z	
          1.76000000	         -5.94636614	        518.98688119	         37.08271927	          0.40538722	          0.00000000	          0.21083569	         -0.00000000	         -0.00000000	         -0.00000000	          0.00000000	          0.00000000	         -0.00000000	          0.00000000	         -3.04689094	          0.00000000	          0.00000000	          0.00000000	          0.00000000	
          1.76500000	         -3.26136871	        515.39297326	         38.14196013	          0.40722922	          0.00000000	          0.21068605	          0.00000000	         -0.00000000	          0.00000000	          0.00000000	          0.00000000	         -0.00000000	          0.00000000	         -3.08410425	          0.00000000	          0.00000000	          0.00000000	          0.00000000	
          1.77000000	         -0.62982553	        513.70299214	         38.94140858	          0.40938266	          0.00000000	          0.21056873	          0.00000000	          0.00000000	          0.00000000	         -0.00000000	          0.00000000	          0.00000000	          0.00000000	         -3.13073259	          0.00000000	          0.00000000	          0.00000000	          0.00000000	
          1.77500000	          1.60262382	        514.04499972	         39.42422395	          0.41173617	          0.00000000	          0.21035186	          0.00000000	          0.00000000	          0.00000000	         -0.00000000	          0.00000000	          0.00000000	          0.00000000	         -3.22191820	          0.00000000	          0.00000000	         -0.00000000	          0.00000000	
          1.78000000	          3.25722102	        516.68875999	         39.62230471	          0.41419375	          0.00000000	          0.21021349	         -0.00000000	         -0.00000000	         -0.00000000	         -0.00000000	          0.00000000	          0.00000000	          0.00000000	         -3.28630326	          0.00000000	          0.00000000	         -0.00000000	          0.00000000	
          1.78500000	          4.50125737	        521.20721460	         39.65385483	          0.41677617	          0.00000000	          0.21016824	         -0.00000000	         -0.00000000	         -0.00000000	          0.00000000	          0.00000000	         -0.00000000	          0.00000000	         -3.34094491	          0.00000000	          0.00000000	         -0.00000000	          0.00000000	
          1.79000000	          5.78169727	        526.90519871	         39.54983982	          0.41939356	          0.00000000	          0.21026664	         -0.00000000	         -0.00000000	         -0.00000000	          0.00000000	          0.00000000	         -0.00000000	          0.00000000	         -3.39671714	          0.00000000	          0.00000000	          0.00000000	          0.00000000	
          1.79500000	          7.30185096	        533.35669549	         39.18122834	          0.42194918	          0.00000000	          0.21032076	          0.00000000	          0.00000000	          0.00000000	         -0.00000000	          0.00000000	         -0.00000000	          0.00000000	         -3.42271773	          0.00000000	          0.00000000	          0.00000000	          0.00000000	
          1.80000000	          8.91873469	        540.74325491	         38.52089258	          0.42431278	          0.00000000	          0.21029579	          0.00000000	          0.00000000	          0.00000000	         -0.00000000	          0.00000000	          0.00000000	          0.00000000	         -3.44321142	          0.00000000	          0.00000000	         -0.00000000	          0.00000000	
          1.80500000	         10.51906113	        549.11061563	         37.73377594	          0.42673314	          0.00000000	          0.21034206	         -0.00000000	          0.00000000	          0.00000000	         -0.00000000	          0.00000000	          0.00000000	          0.00000000	         -3.47867895	          0.00000000	          0.00000000	         -0.00000000	          0.00000000	
          1.81000000	         12.00432248	        558.02544353	         36.83392924	          0.42935011	          0.00000000	          0.21033560	         -0.00000000	         -0.00000000	         -0.00000000	          0.00000000	          0.00000000	         -0.00000000	          0.00000000	         -3.50262970	          0.00000000	          0.00000000	         -0.00000000	          0.00000000	
          1.81500000	         13.22448515	        567.84457600	         35.85281181	          0.43187167	          0.00000000	          0.21034284	         -0.00000000	         -0.00000000	         -0.00000000	          0.00000000	          0.00000000	         -0.00000000	          0.00000000	         -3.53490334	          0.00000000	          0.00000000	          0.00000000	          0.00000000	
          1.82000000	         14.29577692	        578.11678840	         34.85910923	          0.43425411	          0.00000000	          0.21044219	          0.00000000	         -0.00000000	         -0.00000000	          0.00000000	          0.00000000	         -0.00000000	          0.00000000	         -3.59670958	          0.00000000	          0.00000000	          0.00000000	          0.00000000	
          1.82500000	         15.33882998	        588.23425353	         33.86108493	          0.43695612	          0.00000000	          0.21049117	          0.00000000	          0.00000000	          0.00000000	         -0.00000000	          0.00000000	          0.00000000	          0.00000000	         -3.64443192	          0.00000000	          0.00000000	          0.00000000	          0.00000000	
          1.83000000	         16.32892670	        598.45195438	         32.96894018	          0.44011878	          0.00000000	          0.21051446	          0.00000000	          0.00000000	          0.00000000	         -0.00000000	          0.00000000	          0.00000000	          0.00000000	         -3.62530907	          0.00000000	          0.00000000	         -0.00000000	          0.00000000	
          1.83500000	         17.10545919	        608.58089813	         32.28059980	          0.44323943	          0.00000000	          0.21039680	         -0.00000000	         -0.00000000	         -0.00000000	         -0.00000000	          0.00000000	          0.00000000	          0.00000000	         -3.61142535	          0.00000000	          0.00000000	         -0.00000000	          0.00000000	
          1.84000000	         17.56555922	        618.55438965	         31.84477604	          0.44620259	          0.00000000	          0.21029230	         -0.00000000	         -0.00000000	         -0.00000000	          0.00000000	          0.00000000	         -0.00000000	          0.00000000	         -3.62059362	          0.00000000	          0.00000000	         -0.00000000	          0.00000000	
          1.84500000	         17.75214976	        628.31831184	         31.90043927	          0.44947643	          0.00000000	          0.21021449	         -0.00000000	         -0.00000000	         -0.00000000	          0.00000000	          0.00000000	         -0.00000000	          0.00000000	         -3.59078395	          0.00000000	          0.00000000	          0.00000000	          0.00000000	
          1.85000000	         17.73614006	        637.65291960	         32.37360099	          0.45293251	          0.00000000	          0.21006768	          0.00000000	          0.00000000	          0.00000000	          0.00000000	          0.00000000	         -0.00000000	          0.00000000	         -3.49003479	          0.00000000	          0.00000000	          0.00000000	          0.00000000	
          1.85500000	         17.56542067	        646.56839302	         33.11165874	          0.45650968	          0.00000000	          0.21002994	          0.00000000	          0.00000000	          0.00000000	         -0.00000000	          0.00000000	          0.00000000	          0.00000000	         -3.34220616	          0.00000000	          0.00000000	          0.00000000	          0.00000000	
          1.86000000	         17.25956749	        654.73021083	         34.05523030	          0.46044657	          0.00000000	          0.21000086	          0.00000000	          0.00000000	          0.00000000	         -0.00000000	          0.00000000	          0.00000000	          0.00000000	         -3.18079310	          0.00000000	          0.00000000	         -0.00000000	          0.00000000	
          1.86500000	         16.92225804	        662.13097292	         35.16854815	          0.46461603	          0.00000000	          0.20982924	         -0.00000000	         -0.00000000	         -0.00000000	          0.00000000	          0.00000000	         -0.00000000	          0.00000000	         -3.00546137	          0.00000000	          0.00000000	         -0.00000000	          0.00000000	
          1.87000000	         16.62808556	        669.12405658	         36.44123357	          0.46878899	          0.00000000	          0.20961984	         -0.00000000	         -0.00000000	         -0.00000000	          0.00000000	          0.00000000	         -0.00000000	          0.00000000	         -2.80745076	          0.00000000	          0.00000000	          0.00000000	          0.00000000	
          1.87500000	         16.29092166	        675.90983577	         37.69099660	          0.47279412	          0.00000000	          0.20963365	          0.00000000	         -0.00000000	         -0.00000000	          0.00000000	          0.00000000	         -0.00000000	          0.00000000	         -2.61624759	          0.00000000	          0.00000000	          0.00000000	          0.00000000	
          1.88000000	         15.99017390	        682.20139802	         38.80015656	          0.47670006	          0.00000000	          0.20985401	          0.00000000	          0.00000000	          0.00000000	         -0.00000000	          0.00000000	          0.00000000	          0.00000000	         -2.43182123	          0.00000000	          0.00000000	          0.00000000	          0.00000000	
          1.88500000	         15.86838453	        687.80699032	         39.72178322	          0.48091289	          0.00000000	          0.20991211	          0.00000000	          0.00000000	          0.00000000	         -0.00000000	          0.00000000	          0.00000000	          0.00000000	         -2.24883180	          0.00000000	          0.00000000	         -0.00000000	          0.00000000	
          1.89000000	         15.95386398	        693.02882399	         40.44079299	          0.48519708	          0.00000000	          0.20985024	         -0.00000000	          0.00000000	         -0.00000000	         -0.00000000	          0.00000000	          0.00000000	          0.00000000	         -2.08862377	          0.00000000	          0.00000000	         -0.00000000	          0.00000000	
          1.89500000	         16.22148496	        697.79373079	         41.04655970	          0.48925697	          0.00000000	          0.20985619	         -0.00000000	         -0.00000000	         -0.00000000	          0.00000000	          0.00000000	         -0.00000000	          0.00000000	         -1.97247925	          0.00000000	          0.00000000	         -0.00000000	          0.00000000	
          1.90000000	         16.56131045	        702.58047240	         41.67774382	          0.49333630	          0.00000000	          0.20990454	         -0.00000000	         -0.00000000	         -0.00000000	          0.00000000	          0.00000000	         -0.00000000	          0.00000000	         -1.85485299	          0.00000000	          0.00000000	          0.00000000	          0.00000000	
          1.90500000	         17.00830116	        707.61070272	         42.32266286	          0.49731277	          0.00000000	          0.21008131	          0.00000000	          0.00000000	          0.00000000	          0.00000000	          0.00000000	         -0.00000000	          0.00000000	         -1.67955573	          0.00000000	          0.00000000	          0.00000000	          0.00000000	
